<svg width="47" height="47" viewBox="0 0 47 47" fill="none" xmlns="http://www.w3.org/2000/svg">
<rect width="47" height="47" rx="23.5" fill="#EBFAF4"/>
<path d="M23 13C20.892 13 19.1818 14.6797 19.1818 16.75V23C19.1818 25.0703 20.892 26.75 23 26.75C25.108 26.75 26.8182 25.0703 26.8182 23V16.75C26.8182 14.6797 25.108 13 23 13ZM17.9091 21.4375C17.9091 20.918 17.4835 20.5 16.9545 20.5C16.4256 20.5 16 20.918 16 21.4375V23C16 26.4805 18.633 29.3555 22.0455 29.8125V31.125H20.1364C19.6074 31.125 19.1818 31.543 19.1818 32.0625C19.1818 32.582 19.6074 33 20.1364 33H23H25.8636C26.3926 33 26.8182 32.582 26.8182 32.0625C26.8182 31.543 26.3926 31.125 25.8636 31.125H23.9545V29.8125C27.367 29.3555 30 26.4805 30 23V21.4375C30 20.918 29.5744 20.5 29.0455 20.5C28.5165 20.5 28.0909 20.918 28.0909 21.4375V23C28.0909 25.7617 25.8119 28 23 28C20.1881 28 17.9091 25.7617 17.9091 23V21.4375Z" fill="#00BB71"/>
</svg>
