<svg width="19" height="21" viewBox="0 0 19 21" fill="none" xmlns="http://www.w3.org/2000/svg">
<path d="M17.4167 1.61538H15.0417V0.807692C15.0417 0.593479 14.9583 0.388039 14.8098 0.236568C14.6613 0.0850959 14.46 0 14.25 0C14.04 0 13.8387 0.0850959 13.6902 0.236568C13.5417 0.388039 13.4583 0.593479 13.4583 0.807692V1.61538H5.54167V0.807692C5.54167 0.593479 5.45826 0.388039 5.30979 0.236568C5.16133 0.0850959 4.95996 0 4.75 0C4.54004 0 4.33867 0.0850959 4.19021 0.236568C4.04174 0.388039 3.95833 0.593479 3.95833 0.807692V1.61538H1.58333C1.16341 1.61538 0.76068 1.78558 0.463748 2.08852C0.166815 2.39146 0 2.80234 0 3.23077V19.3846C0 19.813 0.166815 20.2239 0.463748 20.5269C0.76068 20.8298 1.16341 21 1.58333 21H17.4167C17.8366 21 18.2393 20.8298 18.5363 20.5269C18.8332 20.2239 19 19.813 19 19.3846V3.23077C19 2.80234 18.8332 2.39146 18.5363 2.08852C18.2393 1.78558 17.8366 1.61538 17.4167 1.61538ZM3.95833 3.23077V4.03846C3.95833 4.25267 4.04174 4.45811 4.19021 4.60959C4.33867 4.76106 4.54004 4.84615 4.75 4.84615C4.95996 4.84615 5.16133 4.76106 5.30979 4.60959C5.45826 4.45811 5.54167 4.25267 5.54167 4.03846V3.23077H13.4583V4.03846C13.4583 4.25267 13.5417 4.45811 13.6902 4.60959C13.8387 4.76106 14.04 4.84615 14.25 4.84615C14.46 4.84615 14.6613 4.76106 14.8098 4.60959C14.9583 4.45811 15.0417 4.25267 15.0417 4.03846V3.23077H17.4167V6.46154H1.58333V3.23077H3.95833ZM17.4167 19.3846H1.58333V8.07692H17.4167V19.3846ZM7.91667 10.5V16.9615C7.91667 17.1758 7.83326 17.3812 7.68479 17.5327C7.53633 17.6841 7.33496 17.7692 7.125 17.7692C6.91504 17.7692 6.71367 17.6841 6.56521 17.5327C6.41674 17.3812 6.33333 17.1758 6.33333 16.9615V11.8064L5.89594 12.0306C5.70802 12.1264 5.49048 12.1422 5.29116 12.0744C5.09184 12.0066 4.92708 11.8609 4.83312 11.6691C4.73917 11.4774 4.72371 11.2555 4.79014 11.0521C4.85658 10.8488 4.99948 10.6807 5.1874 10.5848L6.77073 9.77711C6.89147 9.71547 7.02566 9.68636 7.16054 9.69254C7.29541 9.69873 7.4265 9.74 7.54134 9.81244C7.65617 9.88488 7.75094 9.98608 7.81664 10.1064C7.88233 10.2268 7.91676 10.3623 7.91667 10.5ZM13.771 13.5743L11.875 16.1538H13.4583C13.6683 16.1538 13.8697 16.2389 14.0181 16.3904C14.1666 16.5419 14.25 16.7473 14.25 16.9615C14.25 17.1758 14.1666 17.3812 14.0181 17.5327C13.8697 17.6841 13.6683 17.7692 13.4583 17.7692H10.2917C10.1446 17.7692 10.0005 17.7275 9.87546 17.6486C9.7504 17.5697 9.64933 17.4569 9.58358 17.3228C9.51783 17.1886 9.49 17.0384 9.5032 16.889C9.5164 16.7396 9.57012 16.5969 9.65833 16.4769L12.5064 12.603C12.5711 12.515 12.6176 12.4145 12.6429 12.3075C12.6682 12.2005 12.6719 12.0894 12.6536 11.981C12.6353 11.8725 12.5955 11.769 12.5366 11.6768C12.4777 11.5847 12.4009 11.5057 12.311 11.4449C12.2211 11.384 12.12 11.3426 12.0139 11.3231C11.9077 11.3035 11.7988 11.3063 11.6937 11.3313C11.5887 11.3563 11.4898 11.4029 11.403 11.4683C11.3162 11.5337 11.2435 11.6164 11.1892 11.7115C11.1388 11.8063 11.0702 11.8898 10.9876 11.9572C10.905 12.0245 10.8101 12.0742 10.7083 12.1035C10.6066 12.1328 10.5001 12.1409 10.3952 12.1275C10.2903 12.1142 10.1891 12.0795 10.0975 12.0255C10.006 11.9716 9.92597 11.8995 9.86218 11.8134C9.79839 11.7274 9.75214 11.6293 9.72614 11.5247C9.70015 11.4202 9.69494 11.3114 9.71083 11.2047C9.72672 11.0981 9.76338 10.9958 9.81865 10.9038C10.0802 10.4421 10.4836 10.0813 10.9666 9.87737C11.4495 9.6734 11.9849 9.63766 12.4898 9.77569C12.9946 9.91372 13.4407 10.2178 13.759 10.6408C14.0772 11.0638 14.2498 11.5821 14.25 12.1154C14.2517 12.6421 14.0834 13.1548 13.771 13.5743Z" fill="#00BB71"/>
</svg>
