<svg width="172" height="38" viewBox="0 0 172 38" fill="none" xmlns="http://www.w3.org/2000/svg">
<path d="M30.5025 32.799V4.36466C29.5109 2.73734e-05 24.0555 -2.18206 20.4186 3.63713L1.0432 29.4596C-2.49426 33.8236 3.68854 41.4612 8.7803 36.0058L20.319 19.6398V32.7325C20.319 39.279 30.5025 39.279 30.5025 32.799Z" fill="#00BB71"/>
<circle cx="5.14348" cy="5.09173" r="5.09173" fill="#004A45"/>
<path d="M51.6985 30.1915C50.7199 30.1915 49.8282 30.0715 49.0235 29.8316C48.2406 29.5916 47.5446 29.2862 46.9356 28.9154C46.3484 28.5446 45.8482 28.1629 45.435 27.7702C45.0218 27.3776 44.7173 27.0177 44.5216 26.6905C44.2388 26.2978 44.054 25.9488 43.967 25.6435C43.88 25.3381 43.9017 25.0436 44.0322 24.76C44.1845 24.4546 44.4563 24.1383 44.8478 23.8111C45.2393 23.4621 45.5981 23.2876 45.9243 23.2876C46.2723 23.2658 46.5985 23.364 46.903 23.5821C47.2293 23.8002 47.5446 24.1056 47.8491 24.4983C48.371 25.1963 48.9582 25.698 49.6107 26.0034C50.2632 26.2869 50.9156 26.4287 51.5681 26.4287C52.4162 26.4287 53.1557 26.3197 53.7864 26.1015C54.4171 25.8616 54.9064 25.5126 55.2544 25.0545C55.6241 24.5964 55.809 24.0075 55.809 23.2876C55.809 22.6987 55.6241 22.2188 55.2544 21.848C54.9064 21.4553 54.4388 21.1281 53.8516 20.8664C53.2644 20.5828 52.6011 20.332 51.8617 20.1138C51.144 19.8739 50.4154 19.6121 49.6759 19.3285C49.154 19.154 48.632 18.9468 48.1101 18.7069C47.5881 18.4451 47.0988 18.1506 46.642 17.8234C46.2071 17.4962 45.8156 17.1145 45.4676 16.6782C45.1414 16.2202 44.8804 15.6967 44.6847 15.1077C44.489 14.5187 44.3911 13.8316 44.3911 13.0464C44.3911 11.803 44.6956 10.7124 45.3045 9.77439C45.9135 8.81461 46.7617 8.06206 47.8491 7.51673C48.9365 6.94959 50.1762 6.66602 51.5681 6.66602C52.4597 6.66602 53.2536 6.75327 53.9495 6.92777C54.6672 7.08046 55.2762 7.28769 55.7764 7.54945C56.2983 7.78939 56.7224 8.04024 57.0487 8.302C57.3966 8.54195 57.6467 8.74917 57.799 8.92368C58.2992 9.42538 58.571 9.85074 58.6145 10.1997C58.6798 10.5269 58.484 10.9741 58.0273 11.5413C57.5706 12.1302 57.1248 12.4574 56.6898 12.5228C56.2766 12.5665 55.809 12.392 55.287 11.9993C54.9391 11.6285 54.5911 11.334 54.2431 11.1159C53.8951 10.876 53.5037 10.7014 53.0687 10.5924C52.6555 10.4833 52.1444 10.4288 51.5354 10.4288C51.1005 10.4288 50.6764 10.4942 50.2632 10.6251C49.8717 10.7342 49.5346 10.9087 49.2519 11.1486C48.9691 11.3667 48.7408 11.6394 48.5668 11.9666C48.4145 12.2938 48.3384 12.6646 48.3384 13.0791C48.3384 13.6462 48.4907 14.1152 48.7951 14.486C49.1214 14.835 49.5563 15.1295 50.1 15.3695C50.6437 15.5876 51.2527 15.7948 51.9269 15.9911C52.6011 16.1875 53.2862 16.3947 53.9821 16.6128C54.6998 16.8528 55.4066 17.1363 56.1026 17.4635C56.7985 17.7907 57.4184 18.2052 57.9621 18.7069C58.5058 19.1868 58.9408 19.7975 59.267 20.5392C59.5932 21.259 59.7563 22.1424 59.7563 23.1895C59.7563 24.3892 59.528 25.4362 59.0713 26.3306C58.6145 27.2249 57.9947 27.9556 57.2118 28.5228C56.4288 29.0899 55.5589 29.5044 54.602 29.7661C53.645 30.0497 52.6772 30.1915 51.6985 30.1915Z" fill="#374151"/>
<path d="M70.2544 30.0933C68.8408 30.0933 67.6011 29.8643 66.5355 29.4062C65.4915 28.9481 64.6107 28.3265 63.893 27.5412C63.1971 26.7341 62.6642 25.8398 62.2945 24.8582C61.9465 23.8548 61.7726 22.8187 61.7726 21.7498C61.7726 20.1793 62.1314 18.7832 62.8491 17.5617C63.5668 16.3401 64.5564 15.3804 65.8178 14.6823C67.1009 13.9843 68.5689 13.6353 70.2218 13.6353C71.3962 13.6353 72.4293 13.8207 73.321 14.1916C74.2126 14.5624 74.9521 15.0532 75.5393 15.6639C76.1482 16.2529 76.605 16.9073 76.9094 17.6271C77.2357 18.347 77.3988 19.045 77.3988 19.7212C77.3988 20.8773 77.1161 21.7171 76.5506 22.2406C76.0069 22.7641 75.3218 23.0259 74.4954 23.0259H65.883C65.9048 23.7675 66.1331 24.411 66.5681 24.9563C67.0248 25.5017 67.5903 25.927 68.2645 26.2324C68.9604 26.516 69.6672 26.6578 70.3849 26.6578C70.9286 26.6578 71.4071 26.625 71.8203 26.5596C72.2553 26.4942 72.625 26.4178 72.9295 26.3306C73.234 26.2215 73.4949 26.1124 73.7124 26.0034C73.9517 25.8943 74.1691 25.7961 74.3649 25.7089C74.5606 25.6216 74.7455 25.5671 74.9195 25.5453C75.1587 25.5235 75.3979 25.578 75.6372 25.7089C75.8764 25.8398 76.0721 26.0688 76.2244 26.396C76.3549 26.6141 76.4419 26.8214 76.4854 27.0177C76.5506 27.1922 76.5832 27.3667 76.5832 27.5412C76.5832 27.9775 76.3222 28.3919 75.8003 28.7845C75.2783 29.1554 74.5389 29.4608 73.5819 29.7007C72.6468 29.9625 71.5376 30.0933 70.2544 30.0933ZM65.883 20.7028H72.5706C72.9404 20.7028 73.2231 20.6482 73.4188 20.5392C73.6146 20.4083 73.7124 20.1465 73.7124 19.7539C73.7124 19.2522 73.5602 18.805 73.2557 18.4124C72.9512 17.9979 72.538 17.6817 72.0161 17.4635C71.4941 17.2236 70.8851 17.1036 70.1892 17.1036C69.3845 17.1036 68.6559 17.2672 68.0035 17.5944C67.351 17.8998 66.8291 18.3251 66.4376 18.8705C66.0679 19.4158 65.883 20.0266 65.883 20.7028Z" fill="#374151"/>
<path d="M81.968 29.8643C81.3808 29.8643 80.9458 29.777 80.6631 29.6025C80.4021 29.428 80.239 29.1881 80.1737 28.8827C80.1085 28.5773 80.0759 28.2501 80.0759 27.9011V15.6639C80.0759 15.3149 80.1085 14.9986 80.1737 14.7151C80.239 14.4315 80.413 14.2025 80.6957 14.028C80.9784 13.8534 81.4243 13.7662 82.0332 13.7662C82.6639 13.7662 83.1206 13.8971 83.4034 14.1588C83.7079 14.4206 83.8601 14.835 83.8601 15.4022L83.5665 16.3183C83.6752 16.0784 83.8601 15.8166 84.1211 15.5331C84.3821 15.2495 84.6974 14.9659 85.0671 14.6823C85.4586 14.3988 85.8936 14.1697 86.372 13.9952C86.8505 13.8207 87.3507 13.7335 87.8727 13.7335C88.5904 13.7335 89.2428 13.8534 89.83 14.0934C90.439 14.3333 90.9718 14.6823 91.4285 15.1404C91.907 15.5985 92.3202 16.1547 92.6682 16.8091C93.0379 16.242 93.4511 15.7294 93.9079 15.2713C94.3646 14.7914 94.8974 14.4206 95.5064 14.1588C96.1153 13.8753 96.8004 13.7335 97.5616 13.7335C98.823 13.7335 99.8778 14.0498 100.726 14.6823C101.596 15.3149 102.248 16.2202 102.683 17.3981C103.14 18.5542 103.368 19.9393 103.368 21.5535V27.9011C103.368 28.2719 103.325 28.61 103.238 28.9154C103.173 29.199 102.999 29.428 102.716 29.6025C102.455 29.777 102.02 29.8643 101.411 29.8643C100.802 29.8643 100.356 29.7661 100.074 29.5698C99.7908 29.3953 99.6168 29.1663 99.5516 28.8827C99.4863 28.5773 99.4537 28.2392 99.4537 27.8684V21.5208C99.4537 20.7137 99.3558 20.0157 99.1601 19.4267C98.9644 18.8378 98.6708 18.3797 98.2793 18.0525C97.9096 17.7253 97.4202 17.5617 96.8113 17.5617C96.1588 17.5617 95.5934 17.7253 95.1149 18.0525C94.6582 18.3579 94.2993 18.805 94.0383 19.394C93.7774 19.9829 93.6469 20.7028 93.6469 21.5535V27.9338C93.6469 28.3047 93.5925 28.6537 93.4838 28.9809C93.375 29.2862 93.1575 29.5153 92.8313 29.668C92.5268 29.8425 92.081 29.9079 91.4938 29.8643C90.9501 29.8425 90.5477 29.7334 90.2867 29.5371C90.0475 29.3408 89.8953 29.1008 89.83 28.8173C89.7865 28.5119 89.7648 28.1956 89.7648 27.8684V21.5208C89.7648 20.7137 89.6669 20.0157 89.4712 19.4267C89.2754 18.8159 88.9818 18.3579 88.5904 18.0525C88.2206 17.7253 87.7204 17.5617 87.0897 17.5617C86.4155 17.5617 85.8392 17.7362 85.3607 18.0852C84.904 18.4342 84.556 18.9032 84.3168 19.4921C84.0776 20.0811 83.958 20.7573 83.958 21.5208V27.9338C83.958 28.2828 83.9145 28.61 83.8275 28.9154C83.7622 29.2208 83.5882 29.4498 83.3055 29.6025C83.0445 29.777 82.5987 29.8643 81.968 29.8643Z" fill="#374151"/>
<path d="M114.41 30.0933C112.996 30.0933 111.756 29.8643 110.691 29.4062C109.647 28.9481 108.766 28.3265 108.048 27.5412C107.352 26.7341 106.819 25.8398 106.45 24.8582C106.102 23.8548 105.928 22.8187 105.928 21.7498C105.928 20.1793 106.287 18.7832 107.004 17.5617C107.722 16.3401 108.712 15.3804 109.973 14.6823C111.256 13.9843 112.724 13.6353 114.377 13.6353C115.551 13.6353 116.584 13.8207 117.476 14.1916C118.368 14.5624 119.107 15.0532 119.694 15.6639C120.303 16.2529 120.76 16.9073 121.065 17.6271C121.391 18.347 121.554 19.045 121.554 19.7212C121.554 20.8773 121.271 21.7171 120.706 22.2406C120.162 22.7641 119.477 23.0259 118.651 23.0259H110.038C110.06 23.7675 110.288 24.411 110.723 24.9563C111.18 25.5017 111.745 25.927 112.42 26.2324C113.116 26.516 113.822 26.6578 114.54 26.6578C115.084 26.6578 115.562 26.625 115.976 26.5596C116.41 26.4942 116.78 26.4178 117.085 26.3306C117.389 26.2215 117.65 26.1124 117.868 26.0034C118.107 25.8943 118.324 25.7961 118.52 25.7089C118.716 25.6216 118.901 25.5671 119.075 25.5453C119.314 25.5235 119.553 25.578 119.792 25.7089C120.032 25.8398 120.227 26.0688 120.38 26.396C120.51 26.6141 120.597 26.8214 120.641 27.0177C120.706 27.1922 120.738 27.3667 120.738 27.5412C120.738 27.9775 120.477 28.3919 119.955 28.7845C119.434 29.1554 118.694 29.4608 117.737 29.7007C116.802 29.9625 115.693 30.0933 114.41 30.0933ZM110.038 20.7028H116.726C117.096 20.7028 117.378 20.6482 117.574 20.5392C117.77 20.4083 117.868 20.1465 117.868 19.7539C117.868 19.2522 117.715 18.805 117.411 18.4124C117.106 17.9979 116.693 17.6817 116.171 17.4635C115.649 17.2236 115.04 17.1036 114.344 17.1036C113.54 17.1036 112.811 17.2672 112.159 17.5944C111.506 17.8998 110.984 18.3251 110.593 18.8705C110.223 19.4158 110.038 20.0266 110.038 20.7028Z" fill="#374151"/>
<path d="M137.606 29.8316C136.976 29.8316 136.508 29.7116 136.204 29.4717C135.899 29.2317 135.747 28.9045 135.747 28.4901L135.975 27.4103C135.801 27.6939 135.508 28.032 135.094 28.4246C134.681 28.7955 134.137 29.1336 133.463 29.4389C132.789 29.7225 131.974 29.8643 131.017 29.8643C129.994 29.8643 129.027 29.6571 128.113 29.2426C127.221 28.8064 126.428 28.2174 125.732 27.4758C125.058 26.7123 124.514 25.8507 124.101 24.8909C123.709 23.9093 123.513 22.8623 123.513 21.7498C123.513 20.681 123.709 19.6776 124.101 18.7396C124.514 17.7798 125.068 16.9291 125.764 16.1875C126.46 15.4458 127.254 14.8678 128.146 14.4533C129.059 14.017 130.016 13.7989 131.017 13.7989C131.908 13.7989 132.659 13.9189 133.268 14.1588C133.898 14.3988 134.431 14.7042 134.866 15.075C135.301 15.424 135.66 15.7948 135.943 16.1875L135.747 15.2386C135.747 14.7587 135.899 14.3988 136.204 14.1588C136.508 13.8971 136.987 13.7662 137.639 13.7662C138.248 13.7662 138.683 13.8644 138.944 14.0607C139.205 14.2352 139.368 14.486 139.433 14.8132C139.498 15.1186 139.531 15.4676 139.531 15.8603V27.8357C139.531 28.2065 139.498 28.5446 139.433 28.85C139.368 29.1554 139.194 29.3953 138.911 29.5698C138.65 29.7443 138.215 29.8316 137.606 29.8316ZM131.604 26.0361C132.343 26.0361 133.007 25.8507 133.594 25.4799C134.181 25.109 134.649 24.6073 134.997 23.9747C135.366 23.3204 135.551 22.6005 135.551 21.8152C135.551 20.9645 135.366 20.2229 134.997 19.5903C134.627 18.9577 134.137 18.4669 133.529 18.1179C132.941 17.7471 132.278 17.5617 131.539 17.5617C130.734 17.5617 130.016 17.758 129.385 18.1506C128.755 18.5215 128.255 19.0341 127.885 19.6885C127.537 20.321 127.363 21.0409 127.363 21.848C127.363 22.6332 127.548 23.3422 127.917 23.9747C128.287 24.6073 128.787 25.109 129.418 25.4799C130.071 25.8507 130.799 26.0361 131.604 26.0361Z" fill="#374151"/>
<path d="M144.599 29.897C143.794 29.897 143.228 29.7443 142.902 29.4389C142.576 29.1117 142.413 28.5446 142.413 27.7375C142.413 27.1704 142.478 26.7341 142.609 26.4287C142.761 26.1015 143 25.8616 143.326 25.7089C143.652 25.5562 144.087 25.4799 144.631 25.4799C145.436 25.4799 146.001 25.6435 146.328 25.9707C146.654 26.2978 146.817 26.8759 146.817 27.7048C146.817 28.2501 146.741 28.6864 146.589 29.0136C146.458 29.3408 146.23 29.5698 145.903 29.7007C145.599 29.8316 145.164 29.897 144.599 29.897Z" fill="#374151"/>
<path d="M162.594 29.8316C161.963 29.8316 161.495 29.7116 161.191 29.4717C160.886 29.2317 160.734 28.9045 160.734 28.4901L160.962 27.4103C160.789 27.6939 160.495 28.032 160.082 28.4246C159.668 28.7955 159.125 29.1336 158.451 29.4389C157.776 29.7225 156.961 29.8643 156.004 29.8643C154.982 29.8643 154.014 29.6571 153.1 29.2426C152.209 28.8064 151.415 28.2174 150.719 27.4758C150.045 26.7123 149.501 25.8507 149.088 24.8909C148.696 23.9093 148.501 22.8623 148.501 21.7498C148.501 20.681 148.696 19.6776 149.088 18.7396C149.501 17.7798 150.056 16.9291 150.752 16.1875C151.448 15.4458 152.241 14.8678 153.133 14.4533C154.047 14.017 155.003 13.7989 156.004 13.7989C156.896 13.7989 157.646 13.9189 158.255 14.1588C158.886 14.3988 159.418 14.7042 159.853 15.075C160.288 15.424 160.647 15.7948 160.93 16.1875L160.734 15.2386C160.734 14.7587 160.886 14.3988 161.191 14.1588C161.495 13.8971 161.974 13.7662 162.626 13.7662C163.235 13.7662 163.67 13.8644 163.931 14.0607C164.192 14.2352 164.355 14.486 164.42 14.8132C164.486 15.1186 164.518 15.4676 164.518 15.8603V27.8357C164.518 28.2065 164.486 28.5446 164.42 28.85C164.355 29.1554 164.181 29.3953 163.899 29.5698C163.638 29.7443 163.203 29.8316 162.594 29.8316ZM156.591 26.0361C157.331 26.0361 157.994 25.8507 158.581 25.4799C159.168 25.109 159.636 24.6073 159.984 23.9747C160.354 23.3204 160.538 22.6005 160.538 21.8152C160.538 20.9645 160.354 20.2229 159.984 19.5903C159.614 18.9577 159.125 18.4669 158.516 18.1179C157.929 17.7471 157.265 17.5617 156.526 17.5617C155.721 17.5617 155.003 17.758 154.373 18.1506C153.742 18.5215 153.242 19.0341 152.872 19.6885C152.524 20.321 152.35 21.0409 152.35 21.848C152.35 22.6332 152.535 23.3422 152.905 23.9747C153.274 24.6073 153.775 25.109 154.405 25.4799C155.058 25.8507 155.786 26.0361 156.591 26.0361Z" fill="#00BB71"/>
<path d="M169.879 29.897C169.292 29.897 168.857 29.7989 168.575 29.6025C168.292 29.428 168.118 29.199 168.053 28.9154C167.987 28.61 167.955 28.2719 167.955 27.9011V15.7294C167.955 15.3804 167.987 15.0641 168.053 14.7805C168.14 14.4751 168.314 14.2352 168.575 14.0607C168.857 13.8862 169.303 13.7989 169.912 13.7989C170.521 13.7989 170.956 13.8862 171.217 14.0607C171.5 14.2352 171.674 14.4751 171.739 14.7805C171.804 15.0859 171.837 15.424 171.837 15.7948V27.9338C171.837 28.3047 171.804 28.6428 171.739 28.9481C171.674 29.2317 171.5 29.4608 171.217 29.6353C170.956 29.8098 170.51 29.897 169.879 29.897ZM169.879 10.6251C169.249 10.6251 168.781 10.5378 168.477 10.3633C168.194 10.167 168.009 9.90527 167.922 9.57807C167.857 9.25087 167.824 8.89096 167.824 8.49832C167.824 8.08387 167.857 7.72395 167.922 7.41857C168.009 7.11318 168.205 6.87324 168.509 6.69873C168.814 6.50242 169.281 6.40426 169.912 6.40426C170.565 6.40426 171.032 6.50242 171.315 6.69873C171.598 6.89505 171.782 7.15681 171.869 7.48401C171.956 7.78939 172 8.14931 172 8.56376C172 8.93458 171.956 9.28359 171.869 9.61079C171.782 9.93799 171.598 10.1888 171.315 10.3633C171.032 10.5378 170.554 10.6251 169.879 10.6251Z" fill="#00BB71"/>
</svg>
